<svg width="35" height="34" viewBox="0 0 35 34" fill="none" xmlns="http://www.w3.org/2000/svg">
<rect x="1" y="0.5" width="33" height="33" rx="16.5" stroke="black" stroke-opacity="0.1"/>
<path d="M13.0665 11.5556H24.5L22.9444 17H13.9041M23.7222 20.1111H14.3889L12.8333 10H10.5M15.1667 23.2222C15.1667 23.6518 14.8184 24 14.3889 24C13.9593 24 13.6111 23.6518 13.6111 23.2222C13.6111 22.7927 13.9593 22.4444 14.3889 22.4444C14.8184 22.4444 15.1667 22.7927 15.1667 23.2222ZM23.7222 23.2222C23.7222 23.6518 23.374 24 22.9444 24C22.5149 24 22.1667 23.6518 22.1667 23.2222C22.1667 22.7927 22.5149 22.4444 22.9444 22.4444C23.374 22.4444 23.7222 22.7927 23.7222 23.2222Z" stroke="#333333" stroke-width="1.3" stroke-linecap="round" stroke-linejoin="round"/>
</svg>
