<svg width="32" height="32" viewBox="0 0 32 32" fill="none" xmlns="http://www.w3.org/2000/svg">
<path d="M24.0006 8L22.9328 24.0172C22.8393 25.42 22.7925 26.1215 22.4896 26.6533C22.2228 27.1216 21.8204 27.498 21.3354 27.7331C20.7846 28 20.0816 28 18.6756 28H13.3257C11.9197 28 11.2167 28 10.6658 27.7331C10.1809 27.498 9.7785 27.1216 9.51174 26.6533C9.20874 26.1215 9.16198 25.42 9.06846 24.0172L8.00065 8M5.33398 8H26.6673M21.334 8L20.9732 6.91743C20.6234 5.86833 20.4485 5.34379 20.1242 4.95597C19.8378 4.61351 19.4701 4.34843 19.0546 4.18504C18.5841 4 18.0313 4 16.9254 4H15.0758C13.97 4 13.4172 4 12.9467 4.18504C12.5312 4.34843 12.1634 4.61351 11.877 4.95597C11.5527 5.34379 11.3779 5.86833 11.0282 6.91743L10.6673 8M18.6673 13.3333V22.6667M13.334 13.3333V22.6667" stroke="#D73F3F" stroke-width="1.3" stroke-linecap="round" stroke-linejoin="round"/>
</svg>
