<svg width="18" height="18" viewBox="0 0 18 18" fill="none" xmlns="http://www.w3.org/2000/svg">
<path d="M0.794104 1.10758L0.93934 0.93934C1.47187 0.406807 2.3052 0.358395 2.89242 0.794104L3.06066 0.93934L9 6.878L14.9393 0.93934C15.5251 0.353553 16.4749 0.353553 17.0607 0.93934C17.6464 1.52513 17.6464 2.47487 17.0607 3.06066L11.122 9L17.0607 14.9393C17.5932 15.4719 17.6416 16.3052 17.2059 16.8924L17.0607 17.0607C16.5281 17.5932 15.6948 17.6416 15.1076 17.2059L14.9393 17.0607L9 11.122L3.06066 17.0607C2.47487 17.6464 1.52513 17.6464 0.93934 17.0607C0.353553 16.4749 0.353553 15.5251 0.93934 14.9393L6.878 9L0.93934 3.06066C0.406807 2.52813 0.358395 1.6948 0.794104 1.10758Z" fill="#333333"/>
</svg>
