<svg width="44" height="44" viewBox="0 0 44 44" fill="none" xmlns="http://www.w3.org/2000/svg">
<rect width="44" height="44" rx="22" fill="white" fill-opacity="0.1"/>
<g clip-path="url(#clip0_1989_4124)">
<path d="M31.9951 32.0008V32H32.0001V24.665C32.0001 21.0767 31.2276 18.3125 27.0326 18.3125C25.0159 18.3125 23.6626 19.4192 23.1101 20.4683H23.0517V18.6475H19.0742V32H23.2159V25.3883C23.2159 23.6475 23.5459 21.9642 25.7017 21.9642C27.8259 21.9642 27.8576 23.9508 27.8576 25.5V32.0008H31.9951Z" fill="white"/>
<path d="M12.3281 18.6484H16.4748V32.0009H12.3281V18.6484Z" fill="white"/>
<path d="M14.4017 12C13.0758 12 12 13.0758 12 14.4017C12 15.7275 13.0758 16.8258 14.4017 16.8258C15.7275 16.8258 16.8033 15.7275 16.8033 14.4017C16.8025 13.0758 15.7267 12 14.4017 12V12Z" fill="white"/>
</g>
<defs>
<clipPath id="clip0_1989_4124">
<rect width="20" height="20" fill="white" transform="translate(12 12)"/>
</clipPath>
</defs>
</svg>
