<svg width="20" height="27" viewBox="0 0 20 27" fill="none" xmlns="http://www.w3.org/2000/svg">
<path d="M16.8582 15.1548C16.8582 20.5336 11.349 23.8474 10.2042 24.4786C10.1407 24.5136 10.0695 24.5319 9.99705 24.5319C9.92462 24.5319 9.85337 24.5136 9.78994 24.4786C8.64419 23.8474 3.13672 20.5336 3.13672 15.1548C3.13672 10.8668 5.7095 7.86523 9.99748 7.86523C14.2855 7.86523 16.8582 10.8668 16.8582 15.1548Z" stroke="white" stroke-width="1.4" stroke-linecap="round" stroke-linejoin="round"/>
<path d="M6.56641 14.7273C6.56641 15.637 6.92782 16.5096 7.57114 17.1529C8.21446 17.7962 9.08699 18.1576 9.99679 18.1576C10.9066 18.1576 11.7791 17.7962 12.4224 17.1529C13.0658 16.5096 13.4272 15.637 13.4272 14.7273C13.4272 13.8175 13.0658 12.9449 12.4224 12.3016C11.7791 11.6583 10.9066 11.2969 9.99679 11.2969C9.08699 11.2969 8.21446 11.6583 7.57114 12.3016C6.92782 12.9449 6.56641 13.8175 6.56641 14.7273V14.7273Z" stroke="white" stroke-width="1.4" stroke-linecap="round" stroke-linejoin="round"/>
</svg>
