<svg width="20" height="21" viewBox="0 0 20 21" fill="none" xmlns="http://www.w3.org/2000/svg">
<path d="M18.3346 6.44922V14.7826C18.3346 15.3351 18.1151 15.865 17.7244 16.2557C17.3337 16.6464 16.8038 16.8659 16.2513 16.8659H3.7513C3.19877 16.8659 2.66886 16.6464 2.27816 16.2557C1.88746 15.865 1.66797 15.3351 1.66797 14.7826V6.44922" stroke="white" stroke-width="1.4" stroke-linecap="round" stroke-linejoin="round"/>
<path d="M18.3346 6.44857C18.3346 5.89603 18.1151 5.36613 17.7244 4.97543C17.3337 4.58473 16.8038 4.36523 16.2513 4.36523H3.7513C3.19877 4.36523 2.66886 4.58473 2.27816 4.97543C1.88746 5.36613 1.66797 5.89603 1.66797 6.44857L8.89714 10.9625C9.22824 11.1694 9.61084 11.2791 10.0013 11.2791C10.3918 11.2791 10.7744 11.1694 11.1055 10.9625L18.3346 6.44857Z" stroke="white" stroke-width="1.4" stroke-linecap="round" stroke-linejoin="round"/>
</svg>
