<svg width="20" height="21" viewBox="0 0 20 21" fill="none" xmlns="http://www.w3.org/2000/svg">
<path d="M12.2529 17.8861L12.262 17.8925C13.049 18.3936 13.9835 18.6112 14.911 18.5094C15.8384 18.4075 16.7034 17.9923 17.3629 17.3323L17.9359 16.7593C18.0628 16.6324 18.1635 16.4818 18.2323 16.316C18.301 16.1501 18.3364 15.9724 18.3364 15.7929C18.3364 15.6134 18.301 15.4356 18.2323 15.2698C18.1635 15.104 18.0628 14.9533 17.9359 14.8264L15.5193 12.4117C15.3924 12.2847 15.2417 12.184 15.0759 12.1153C14.9101 12.0466 14.7324 12.0112 14.5529 12.0112C14.3734 12.0112 14.1956 12.0466 14.0298 12.1153C13.864 12.184 13.7133 12.2847 13.5864 12.4117C13.3302 12.6678 12.9827 12.8117 12.6204 12.8117C12.2581 12.8117 11.9107 12.6678 11.6544 12.4117L7.79048 8.54683C7.53433 8.29061 7.39044 7.94314 7.39044 7.58085C7.39044 7.21855 7.53433 6.87108 7.79048 6.61486C7.91745 6.48797 8.01817 6.33731 8.08689 6.17148C8.1556 6.00566 8.19097 5.82792 8.19097 5.64841C8.19097 5.46891 8.1556 5.29117 8.08689 5.12534C8.01817 4.95952 7.91745 4.80886 7.79048 4.68197L5.37482 2.26723C5.1186 2.01108 4.77114 1.86719 4.40884 1.86719C4.04654 1.86719 3.69907 2.01108 3.44285 2.26723L2.86899 2.84017C2.20914 3.49981 1.79408 4.36483 1.69239 5.29229C1.5907 6.21975 1.80847 7.15415 2.30971 7.9411L2.31518 7.95021C4.96236 11.8668 8.3358 15.2396 12.2529 17.8861V17.8861Z" stroke="white" stroke-width="1.4" stroke-linecap="round" stroke-linejoin="round"/>
</svg>
