<svg width="28" height="28" viewBox="0 0 28 28" fill="none" xmlns="http://www.w3.org/2000/svg">
<circle cx="14" cy="14" r="14" fill="#1A5A31"/>
<path d="M20.2052 10.9831C19.7862 11.1693 19.3439 11.2857 18.8783 11.3556C19.3439 11.0762 19.7163 10.6339 19.8793 10.0985C19.437 10.3546 18.9481 10.5408 18.4127 10.6572C17.9937 10.2149 17.3884 9.93555 16.7366 9.93555C15.4795 9.93555 14.4553 10.9598 14.4553 12.2169C14.4553 12.4031 14.4785 12.5661 14.5251 12.729C12.6395 12.6359 10.9401 11.728 9.79946 10.3313C9.61323 10.6805 9.49683 11.0529 9.49683 11.472C9.49683 12.2634 9.89257 12.9618 10.5211 13.3808C10.1486 13.3576 9.79946 13.2644 9.47355 13.1015V13.1248C9.47355 14.2422 10.265 15.1733 11.3126 15.3828C11.1264 15.4294 10.9168 15.4527 10.7073 15.4527C10.5677 15.4527 10.4047 15.4294 10.265 15.4061C10.5677 16.314 11.4057 16.9891 12.4067 16.9891C11.6152 17.5943 10.6375 17.9668 9.56667 17.9668C9.38044 17.9668 9.1942 17.9668 9.03125 17.9435C10.0555 18.5953 11.2428 18.9678 12.5464 18.9678C16.7599 18.9678 19.0645 15.476 19.0645 12.4497C19.0645 12.3566 19.0645 12.2402 19.0645 12.1471C19.5068 11.8444 19.9025 11.4487 20.2052 10.9831Z" fill="#C89D1A"/>
</svg>
